# xmcd
#
# Track frame offsets:
#	150
#	13172
#	23302
#	33315
#	44785
#	57597
#	68895
#	81495
#	95950
#	118707
#	131177
#	142695
#	155142
#	166665
#	177192
#	195935
#	207572
#	222845
#	236095
#	248817
#	263347
#	273632
#	283295
#	296637
#	312742
#	322680
#
# Disc length: 4443 seconds
#
# Revision: 1
# Processed by: cddbd v1.4PL0 Copyright (c) Steve Scherf et al.
# Submitted via: MusicWizard 6.0.2
#
DISCID=8e11591a
DTITLE=Various Artist - I Love Country [CD 1/3)
DYEAR=1995
DGENRE=Country-Music
TTITLE0=Chris Le Doux - Get Back On That Pony
TTITLE1=Jerry Reed - You Took The Ramblin' Out Of Me
TTITLE2=Charley Pride - Is Anybody Goin' To San Antone
TTITLE3=Eddy Arnold - Welcome To My World
TTITLE4=Waylon Jennings - My Heroes Have Always Been Cowboys
TTITLE5=Floyd Cramer - King Of The Road
TTITLE6=Dolly Parton - Daddy
TTITLE7=Billy Walker - Another Somebody Done Somebody Wrong Song
TTITLE8=Dan Seals - You Still Move Me
TTITLE9=Sonny James - Since I Met You Baby
TTITLE10=Tennessee Ernie Ford - Red Roses For A Blue Lady
TTITLE11=Jim Reeves - Blue Side Of Lonesome
TTITLE12=Dottie West - Here Comes My Baby
TTITLE13=Mel McDaniel - Louisiana Saturday Night
TTITLE14=Michael Martin Murphy - Carolina In The Pines
TTITLE15=Patsy Cline - Sweet Dreams
TTITLE16=Don Williams - I Recall A Gipsy Woman
TTITLE17=Nitty Gritty Dirth Band - How Long
TTITLE18=Conway Twitty - I Can't Stop Loving You
TTITLE19=Kostas - Full Deck Of Cards
TTITLE20=Chet Atkins - Mister Sandman
TTITLE21=Loretta Lynn - Don't Come Home A Drinkin'
TTITLE22=Glen Campbell - Gentle On My Mind
TTITLE23=Willie Nelson - The Streets Of Laredo
TTITLE24=The Sons Of The Pioneers - Don't Fence Me In
TTITLE25=Don Gibson - Lonesome Number One
EXTD=
EXTT0=
EXTT1=
EXTT2=
EXTT3=
EXTT4=
EXTT5=
EXTT6=
EXTT7=
EXTT8=
EXTT9=
EXTT10=
EXTT11=
EXTT12=
EXTT13=
EXTT14=
EXTT15=
EXTT16=
EXTT17=
EXTT18=
EXTT19=
EXTT20=
EXTT21=
EXTT22=
EXTT23=
EXTT24=
EXTT25=
PLAYORDER=
